<svg xmlns="http://www.w3.org/2000/svg" viewBox="0 0 128 128"><rect width="128" height="128" rx="28" fill="#0f1115"/><path d="M45 31c-10 0-18 8-18 18 0 2 0 4 1 6-8 3-14 11-14 20 0 12 10 22 22 22h2c3 10 12 18 23 18 5 0 9-1 13-4 4 3 8 4 13 4 13 0 24-11 24-24 0-5-2-10-5-14 5-4 8-10 8-17 0-12-10-22-22-22h-2c-3-9-12-16-22-16-6 0-12 2-16 6-2-1-5-2-7-2z" fill="#7c5cff"/><path d="M42 52c8-8 18-6 22 1m-23 22c9 3 17 0 21-7m14-21c9 0 16 6 17 14m-20 18c6 7 15 7 22 3m-34-32v48m15-62v72" fill="none" stroke="#eef2ff" stroke-width="7" stroke-linecap="round" stroke-linejoin="round" opacity=".95"/></svg>